%FSLAX34Y34*%
%MOMM*%
%LNOUTLINE*%
G71*
G01*
%ADD10C,0.000*%
%LPD*%
G54D10*
X691607Y795803D02*
X691607Y759608D01*
G54D10*
X642230Y946781D02*
X642230Y920797D01*
G54D10*
X642230Y920797D02*
X691607Y920797D01*
G54D10*
X691607Y920797D02*
X691607Y833802D01*
G54D10*
X642230Y795803D02*
X642230Y833802D01*
G54D10*
X642230Y833802D02*
X691607Y833802D01*
G54D10*
X5655Y820797D02*
X5655Y696159D01*
G54D10*
X142205Y720797D02*
X142205Y682799D01*
G54D10*
X104207Y682799D02*
X70984Y649550D01*
G54D10*
X70984Y649550D02*
X70984Y630830D01*
G54D10*
X642230Y820797D02*
X642230Y795803D01*
G54D10*
X642230Y795803D02*
X691607Y795803D01*
G54D10*
X691607Y795803D02*
X691607Y682799D01*
G54D10*
X691607Y990799D02*
X691607Y946781D01*
G54D10*
X642230Y946781D02*
X691607Y946781D01*
G54D10*
X135627Y820797D02*
X135627Y990799D01*
G54D10*
X142205Y682799D02*
X104207Y682799D01*
G54D10*
X642230Y682799D02*
X691607Y682799D01*
G54D10*
X642230Y682799D02*
X642230Y720797D01*
G54D10*
X642230Y720797D02*
X142205Y720797D01*
G54D10*
X5655Y820797D02*
X135627Y820797D01*
G54D10*
X691607Y990799D02*
X135627Y990799D01*
G54D10*
G75*
G01X5630Y696159D02*
G03X70984Y630805I65354J0D01*
G01*
M02*
