%FSLAX34Y34*%
%MOMM*%
%LNSOLDERMASK_BOTTOM*%
G71*
G01*
%ADD10R,1.100X3.100*%
%ADD11R,0.700X2.300*%
%ADD12R,3.700X0.500*%
%ADD13R,3.900X0.500*%
%ADD14R,3.000X3.000*%
%ADD15C,2.600*%
%LPD*%
X182959Y763984D02*
G54D10*
D03*
X190500Y762794D02*
G54D11*
D03*
X221059Y763984D02*
G54D10*
D03*
X196056Y777081D02*
G54D12*
D03*
X206375Y750888D02*
G54D13*
D03*
X196056Y767159D02*
G54D11*
D03*
X201612Y760412D02*
G54D11*
D03*
X207169Y767556D02*
G54D11*
D03*
X212725Y760412D02*
G54D11*
D03*
X351631Y763588D02*
G54D10*
D03*
X359172Y762397D02*
G54D11*
D03*
X389731Y763588D02*
G54D10*
D03*
X364728Y776684D02*
G54D12*
D03*
X375047Y750491D02*
G54D13*
D03*
X364728Y766762D02*
G54D11*
D03*
X370284Y760016D02*
G54D11*
D03*
X375841Y767159D02*
G54D11*
D03*
X381397Y760016D02*
G54D11*
D03*
X556419Y763191D02*
G54D10*
D03*
X563959Y762000D02*
G54D11*
D03*
X594519Y763191D02*
G54D10*
D03*
X569516Y776288D02*
G54D12*
D03*
X579834Y750094D02*
G54D13*
D03*
X569516Y766366D02*
G54D11*
D03*
X575072Y759619D02*
G54D11*
D03*
X580628Y766762D02*
G54D11*
D03*
X586184Y759619D02*
G54D11*
D03*
X677466Y696912D02*
G54D14*
D03*
X118269Y696912D02*
G54D14*
D03*
X152400Y939800D02*
G54D15*
D03*
X152400Y914400D02*
G54D15*
D03*
X152400Y889000D02*
G54D15*
D03*
X152400Y863600D02*
G54D15*
D03*
X609600Y812800D02*
G54D15*
D03*
X152400Y812800D02*
G54D15*
D03*
X584200Y812800D02*
G54D15*
D03*
X558800Y812800D02*
G54D15*
D03*
X533400Y812800D02*
G54D15*
D03*
X508000Y812800D02*
G54D15*
D03*
X177800Y939800D02*
G54D15*
D03*
X177800Y914400D02*
G54D15*
D03*
X177800Y889000D02*
G54D15*
D03*
X177800Y863600D02*
G54D15*
D03*
M02*
